<svg width="36" height="36" viewBox="0 0 36 36" fill="none" xmlns="http://www.w3.org/2000/svg">
<path d="M21.3754 28.1513H15.9436C15.5842 28.1513 15.2941 28.4418 15.2941 28.8007C15.2941 29.1597 15.5843 29.4502 15.9436 29.4502H21.3754C21.7349 29.4502 22.0248 29.1597 22.0248 28.8007C22.0248 28.4418 21.7349 28.1513 21.3754 28.1513Z" fill="white"/>
<path d="M18.8465 9.15286C19.1474 9.15286 19.3914 8.90891 19.3914 8.60798C19.3914 8.30706 19.1474 8.06311 18.8465 8.06311C18.5456 8.06311 18.3016 8.30706 18.3016 8.60798C18.3016 8.90891 18.5456 9.15286 18.8465 9.15286Z" fill="white"/>
<path d="M18.0205 11.0513C18.6491 11.0513 19.2041 10.7554 19.5726 10.3012C19.3494 10.3973 19.1045 10.4512 18.8464 10.4512C17.8308 10.4512 17.0021 9.62379 17.0021 8.60669C17.0021 7.95212 17.3485 7.3791 17.8641 7.0517C16.8315 7.13289 16.0123 7.99013 16.0123 9.04307C16.0124 10.1512 16.914 11.0513 18.0205 11.0513Z" fill="white"/>
<path d="M18.0205 13.9691C20.7366 13.9691 22.9458 11.7601 22.9458 9.0438C22.9458 6.32749 20.7372 4.11841 18.0205 4.11841C15.3044 4.11841 13.0945 6.32737 13.0945 9.04368C13.0945 11.76 15.3044 13.9691 18.0205 13.9691ZM18.0205 5.73775C19.8435 5.73775 21.327 7.22142 21.327 9.04428C21.327 10.8676 19.8435 12.3509 18.0205 12.3509C16.1975 12.3509 14.714 10.8676 14.714 9.04428C14.714 7.22142 16.1976 5.73775 18.0205 5.73775Z" fill="white"/>
<path d="M34.4044 35.098C34.3644 35.0029 30.5206 25.708 31.7651 14.9155C31.7759 14.8273 31.7613 14.7394 31.7295 14.6582C31.7512 14.3693 31.7702 14.0639 31.7702 13.7496C31.7702 10.8027 30.8296 8.07615 29.2431 5.83519L31.9636 3.11636L32.5731 3.72691C32.7 3.85344 32.8662 3.91719 33.0323 3.91719C33.1991 3.91719 33.3654 3.85344 33.4914 3.72691C33.7464 3.47287 33.7464 3.06248 33.4914 2.80844L31.179 0.496039C30.9247 0.242366 30.5143 0.242366 30.2606 0.496039C30.0062 0.750073 30.0062 1.16083 30.2606 1.41451L31.0432 2.19717L28.4376 4.80258C25.9137 1.86796 22.1842 0 18.0193 0C13.923 0 10.2492 1.81095 7.72914 4.65379L5.72165 2.64594L6.17234 2.19525C6.42638 1.94122 6.42638 1.53094 6.17234 1.27678C5.91831 1.02275 5.50791 1.02275 5.25388 1.27678L3.2506 3.27934C2.99656 3.53338 2.99656 3.94366 3.2506 4.19781C3.37713 4.32434 3.54372 4.38809 3.70983 4.38809C3.87594 4.38809 4.04217 4.32434 4.16906 4.19781L4.80246 3.56441L6.90931 5.67161C5.25821 7.93254 4.27226 10.7015 4.27311 13.6951C3.74471 20.0837 2.50377 32.7836 1.58976 35.1115C1.51109 35.3126 1.53647 35.5364 1.65735 35.7159C1.77812 35.893 1.97887 36 2.19393 36H33.8044C34.022 36 34.2242 35.8909 34.3454 35.7108C34.4665 35.5281 34.4894 35.2985 34.4044 35.098ZM18.0205 2.81939C21.452 2.81939 24.2448 5.61147 24.2448 9.04369C24.2448 12.4758 21.452 15.268 18.0205 15.268C14.5887 15.268 11.7956 12.4758 11.7956 9.04369C11.7956 5.61159 14.5887 2.81939 18.0205 2.81939ZM25.0022 22.2245C25.0022 23.403 24.0431 24.362 22.864 24.362C22.285 24.362 21.761 24.1286 21.3754 23.7543C20.9896 24.1285 20.4663 24.362 19.8873 24.362C19.3076 24.362 18.7843 24.1286 18.3986 23.7543C18.0143 24.1285 17.49 24.362 16.91 24.362C16.3315 24.362 15.8073 24.1286 15.4218 23.7543C15.0368 24.1285 14.5125 24.362 13.9332 24.362C12.7544 24.362 11.795 23.4028 11.795 22.2245V18.6242C11.795 18.2658 12.0855 17.9747 12.4445 17.9747C12.8039 17.9747 13.094 18.2652 13.094 18.6242C13.094 19.0873 13.4702 19.4639 13.9332 19.4639C14.3966 19.4639 14.7724 19.0872 14.7724 18.6242C14.7724 18.2658 15.063 17.9747 15.422 17.9747C15.7812 17.9747 16.0715 18.2652 16.0715 18.6242C16.0715 19.0873 16.4476 19.4639 16.91 19.4639C17.3733 19.4639 17.7492 19.0872 17.7492 18.6242C17.7492 18.2658 18.039 17.9747 18.3986 17.9747C18.7582 17.9747 19.0481 18.2652 19.0481 18.6242C19.0481 19.0873 19.4242 19.4639 19.8873 19.4639C20.3504 19.4639 20.7259 19.0872 20.7259 18.6242C20.7259 18.2658 21.0164 17.9747 21.3754 17.9747C21.7349 17.9747 22.0248 18.2652 22.0248 18.6242C22.0248 19.0873 22.4009 19.4639 22.864 19.4639C23.3277 19.4639 23.7033 19.0872 23.7033 18.6242C23.7033 18.2658 23.9938 17.9747 24.3527 17.9747C24.7123 17.9747 25.0022 18.2652 25.0022 18.6242V22.2245ZM29.2045 20.423C29.2045 20.7832 28.914 21.0725 28.555 21.0725C28.1953 21.0725 27.9056 20.7832 27.9056 20.423V11.317C27.9056 10.958 28.1953 10.6675 28.555 10.6675C28.914 10.6675 29.2045 10.958 29.2045 11.317V20.423Z" fill="white"/>
<path d="M21.3754 20.154C20.9896 20.5282 20.4663 20.7618 19.8873 20.7618C19.3076 20.7618 18.7843 20.5296 18.3985 20.153C18.0142 20.5284 17.4899 20.7618 16.9099 20.7618C16.3315 20.7618 15.8073 20.5296 15.4218 20.154C15.0368 20.5282 14.5125 20.7618 13.9332 20.7618C13.6351 20.7618 13.3519 20.7008 13.094 20.5892V22.2231C13.094 22.6862 13.4702 23.0617 13.9332 23.0617C14.3966 23.0617 14.7724 22.6862 14.7724 22.2231C14.7724 21.8642 15.063 21.5737 15.422 21.5737C15.7812 21.5737 16.0715 21.8642 16.0715 22.2231C16.0715 22.6862 16.4476 23.0617 16.9099 23.0617C17.3733 23.0617 17.7491 22.6862 17.7491 22.2231C17.7491 21.8642 18.039 21.5737 18.3985 21.5737C18.7582 21.5737 19.0481 21.8642 19.0481 22.2231C19.0481 22.6862 19.4242 23.0617 19.8873 23.0617C20.3503 23.0617 20.7259 22.6862 20.7259 22.2231C20.7259 21.8642 21.0163 21.5737 21.3754 21.5737C21.7349 21.5737 22.0248 21.8642 22.0248 22.2231C22.0248 22.6862 22.4009 23.0617 22.864 23.0617C23.3277 23.0617 23.7033 22.6862 23.7033 22.2231V20.5892C23.4464 20.7008 23.1622 20.7618 22.864 20.7618C22.2856 20.7629 21.7616 20.5296 21.3754 20.154Z" fill="white"/>
</svg>
