<svg width="37" height="36" viewBox="0 0 37 36" fill="none" xmlns="http://www.w3.org/2000/svg">
<path d="M27.2874 4.43801C28.4416 4.17156 29.5932 4.89114 29.8597 6.04534L31.0659 11.27L5.98706 17.0599L4.78091 11.8353C4.51445 10.6811 5.2341 9.52937 6.38824 9.26292L27.2874 4.43801ZM6.30858 13.6838L6.79103 15.7737L10.8095 9.34284L8.71961 9.82536L6.30858 13.6838ZM9.92584 15.0499L12.0157 14.5675L16.0341 8.13661L13.9443 8.61913L9.92584 15.0499ZM15.1505 13.8438L17.2403 13.3613L21.2588 6.93046L19.1689 7.41291L15.1505 13.8438ZM20.3751 12.6376L22.465 12.155L26.4834 5.72423L24.3936 6.20668L20.3751 12.6376ZM25.5997 11.4313L27.6896 10.9489L29.297 8.37652L28.8145 6.28667L25.5997 11.4313ZM29.5807 31.0013H8.13191C6.94729 31.0013 5.98706 30.041 5.98706 28.8565V17.0599L31.7252 17.06L31.7255 28.8565C31.7255 30.041 30.7652 31.0013 29.5807 31.0013ZM13.4942 18.1324L9.20457 22.422H11.3494L15.639 18.1324H13.4942ZM18.8563 18.1324L14.5666 22.422H16.7114L21.001 18.1324H18.8563ZM24.2183 18.1324L19.9287 22.422H22.0735L26.3631 18.1324H24.2183ZM29.5804 18.1324L25.2907 22.422H27.4355L30.6469 19.2107L30.6528 18.1324H29.5804ZM8.13218 18.1324L7.05972 19.2048V21.3496L10.277 18.1324H8.13218Z" fill="white"/>
</svg>
