<svg width="37" height="36" viewBox="0 0 37 36" fill="none" xmlns="http://www.w3.org/2000/svg">
<path d="M27.2875 4.43801C28.4417 4.17156 29.5933 4.89114 29.8598 6.04534L31.066 11.27L5.98719 17.0599L4.78103 11.8353C4.51457 10.6811 5.23422 9.52937 6.38836 9.26292L27.2875 4.43801ZM6.30871 13.6838L6.79116 15.7737L10.8096 9.34284L8.71973 9.82536L6.30871 13.6838ZM9.92596 15.0499L12.0158 14.5675L16.0342 8.13661L13.9444 8.61913L9.92596 15.0499ZM15.1506 13.8438L17.2405 13.3613L21.2589 6.93046L19.169 7.41291L15.1506 13.8438ZM20.3753 12.6376L22.4651 12.155L26.4835 5.72423L24.3937 6.20668L20.3753 12.6376ZM25.5998 11.4313L27.6897 10.9489L29.2971 8.37652L28.8146 6.28667L25.5998 11.4313ZM29.5808 31.0013H8.13203C6.94741 31.0013 5.98719 30.041 5.98719 28.8565V17.0599L31.7253 17.06L31.7256 28.8565C31.7256 30.041 30.7654 31.0013 29.5808 31.0013ZM13.4943 18.1324L9.20469 22.422H11.3495L15.6392 18.1324H13.4943ZM18.8564 18.1324L14.5668 22.422H16.7115L21.0012 18.1324H18.8564ZM24.2185 18.1324L19.9288 22.422H22.0736L26.3632 18.1324H24.2185ZM29.5805 18.1324L25.2909 22.422H27.4356L30.647 19.2107L30.6529 18.1324H29.5805ZM8.1323 18.1324L7.05985 19.2048V21.3496L10.2771 18.1324H8.1323Z" fill="#008B9F"/>
</svg>
