<svg width="17" height="17" viewBox="0 0 17 17" fill="none" xmlns="http://www.w3.org/2000/svg">
<path d="M4.39271 9.01089L8.17537 12.5643C8.30567 12.6867 8.37079 12.7479 8.44761 12.7629C8.48222 12.7698 8.5178 12.7698 8.5524 12.7629C8.62922 12.7479 8.69435 12.6867 8.82465 12.5643L12.6073 9.01089C13.6716 8.01112 13.8008 6.36588 12.9057 5.21218L12.7374 4.99525C11.6666 3.61509 9.51718 3.84655 8.7648 5.42305C8.65849 5.64574 8.34152 5.64574 8.23521 5.42305C7.48283 3.84655 5.33342 3.61509 4.26261 4.99525L4.0943 5.21218C3.19919 6.36588 3.32843 8.01112 4.39271 9.01089Z" fill="#C90000" stroke="#C90000"/>
</svg>
