<svg width="17" height="17" viewBox="0 0 17 17" fill="none" xmlns="http://www.w3.org/2000/svg">
<path d="M4.39271 9.42028L8.17537 12.9737C8.30567 13.0961 8.37079 13.1573 8.44761 13.1723C8.48222 13.1791 8.5178 13.1791 8.5524 13.1723C8.62922 13.1573 8.69435 13.0961 8.82465 12.9737L12.6073 9.42028C13.6716 8.42051 13.8008 6.77527 12.9057 5.62157L12.7374 5.40464C11.6666 4.02449 9.51718 4.25595 8.7648 5.83244C8.65849 6.05513 8.34152 6.05513 8.23521 5.83244C7.48283 4.25595 5.33342 4.02449 4.26261 5.40465L4.0943 5.62157C3.19919 6.77527 3.32843 8.42051 4.39271 9.42028Z" fill="#E3E3E3" stroke="#E3E3E3"/>
</svg>
