<svg width="36" height="36" viewBox="0 0 36 36" fill="none" xmlns="http://www.w3.org/2000/svg">
<path d="M9.1604 19.327L17.3013 26.9746C17.5818 27.238 17.7219 27.3697 17.8873 27.4021C17.9617 27.4167 18.0383 27.4167 18.1128 27.4021C18.2781 27.3697 18.4183 27.238 18.6987 26.9746L26.8396 19.327C29.1301 17.1753 29.4082 13.6345 27.4818 11.1515L27.1197 10.6847C24.8151 7.71434 20.1892 8.21248 18.5699 11.6054C18.3411 12.0846 17.6589 12.0846 17.4301 11.6054C15.8109 8.21248 11.185 7.71434 8.8804 10.6847L8.51818 11.1515C6.59174 13.6345 6.86989 17.1753 9.1604 19.327Z" fill="#008B9F" stroke="#008B9F" stroke-width="2.15217"/>
</svg>
