<svg width="36" height="36" viewBox="0 0 36 36" fill="none" xmlns="http://www.w3.org/2000/svg">
<rect x="1" y="1" width="34" height="34" rx="17" fill="white"/>
<rect x="1" y="1" width="34" height="34" rx="17" stroke="#00B0C9" stroke-width="2"/>
<path d="M11.4283 18.9337L17.4806 24.6192C17.6891 24.8149 17.7933 24.9129 17.9162 24.937C17.9715 24.9479 18.0285 24.9479 18.0838 24.937C18.2068 24.9129 18.311 24.8149 18.5194 24.6192L24.5717 18.9337C26.2745 17.3341 26.4813 14.7017 25.0491 12.8557L24.7799 12.5087C23.0666 10.3004 19.6275 10.6707 18.4237 13.1931C18.2536 13.5494 17.7464 13.5494 17.5763 13.1931C16.3725 10.6707 12.9335 10.3004 11.2202 12.5087L10.9509 12.8557C9.51871 14.7017 9.72549 17.3341 11.4283 18.9337Z" fill="#00B0C9" stroke="#00B0C9" stroke-width="1.741"/>
</svg>
