<svg width="20" height="20" viewBox="0 0 20 20" fill="none" xmlns="http://www.w3.org/2000/svg">
<path d="M16.25 5H18.125V4.375C18.1246 4.0436 17.9928 3.72587 17.7585 3.49154C17.5241 3.2572 17.2064 3.12538 16.875 3.125H3.125C2.7936 3.12538 2.47587 3.2572 2.24154 3.49154C2.0072 3.72587 1.87538 4.0436 1.875 4.375V5H3.75C3.91576 5 4.07473 5.06585 4.19194 5.18306C4.30915 5.30027 4.375 5.45924 4.375 5.625C4.375 5.79076 4.30915 5.94973 4.19194 6.06694C4.07473 6.18415 3.91576 6.25 3.75 6.25H1.875V13.75H3.75C3.91576 13.75 4.07473 13.8158 4.19194 13.9331C4.30915 14.0503 4.375 14.2092 4.375 14.375C4.375 14.5408 4.30915 14.6997 4.19194 14.8169C4.07473 14.9342 3.91576 15 3.75 15H1.875V15.625C1.87538 15.9564 2.0072 16.2741 2.24154 16.5085C2.47587 16.7428 2.7936 16.8746 3.125 16.875H16.875C17.2064 16.8746 17.5241 16.7428 17.7585 16.5085C17.9928 16.2741 18.1246 15.9564 18.125 15.625V15H16.25C16.0842 15 15.9253 14.9342 15.8081 14.8169C15.6908 14.6997 15.625 14.5408 15.625 14.375C15.625 14.2092 15.6908 14.0503 15.8081 13.9331C15.9253 13.8158 16.0842 13.75 16.25 13.75H18.125V6.25H16.25C16.0842 6.25 15.9253 6.18415 15.8081 6.06694C15.6908 5.94973 15.625 5.79076 15.625 5.625C15.625 5.45924 15.6908 5.30027 15.8081 5.18306C15.9253 5.06585 16.0842 5 16.25 5ZM8.4375 15H6.875C6.70924 15 6.55027 14.9342 6.43306 14.8169C6.31585 14.6997 6.25 14.5408 6.25 14.375C6.25 14.2092 6.31585 14.0503 6.43306 13.9331C6.55027 13.8158 6.70924 13.75 6.875 13.75H8.4375C8.60326 13.75 8.76223 13.8158 8.87944 13.9331C8.99665 14.0503 9.0625 14.2092 9.0625 14.375C9.0625 14.5408 8.99665 14.6997 8.87944 14.8169C8.76223 14.9342 8.60326 15 8.4375 15ZM8.4375 6.25H6.875C6.70924 6.25 6.55027 6.18415 6.43306 6.06694C6.31585 5.94973 6.25 5.79076 6.25 5.625C6.25 5.45924 6.31585 5.30027 6.43306 5.18306C6.55027 5.06585 6.70924 5 6.875 5H8.4375C8.60326 5 8.76223 5.06585 8.87944 5.18306C8.99665 5.30027 9.0625 5.45924 9.0625 5.625C9.0625 5.79076 8.99665 5.94973 8.87944 6.06694C8.76223 6.18415 8.60326 6.25 8.4375 6.25ZM13.125 15H11.5625C11.3967 15 11.2378 14.9342 11.1206 14.8169C11.0033 14.6997 10.9375 14.5408 10.9375 14.375C10.9375 14.2092 11.0033 14.0503 11.1206 13.9331C11.2378 13.8158 11.3967 13.75 11.5625 13.75H13.125C13.2908 13.75 13.4497 13.8158 13.5669 13.9331C13.6842 14.0503 13.75 14.2092 13.75 14.375C13.75 14.5408 13.6842 14.6997 13.5669 14.8169C13.4497 14.9342 13.2908 15 13.125 15ZM13.125 6.25H11.5625C11.3967 6.25 11.2378 6.18415 11.1206 6.06694C11.0033 5.94973 10.9375 5.79076 10.9375 5.625C10.9375 5.45924 11.0033 5.30027 11.1206 5.18306C11.2378 5.06585 11.3967 5 11.5625 5H13.125C13.2908 5 13.4497 5.06585 13.5669 5.18306C13.6842 5.30027 13.75 5.45924 13.75 5.625C13.75 5.79076 13.6842 5.94973 13.5669 6.06694C13.4497 6.18415 13.2908 6.25 13.125 6.25Z" fill="#00B0C9"/>
</svg>
