<svg width="37" height="36" viewBox="0 0 37 36" fill="none" xmlns="http://www.w3.org/2000/svg">
<path d="M31.7279 16.3123C31.9666 18.2125 31.7984 20.1418 31.2345 21.9721C30.6706 23.8023 29.7238 25.4917 28.457 26.9281C27.1902 28.3645 25.6324 29.5149 23.8869 30.3032C22.1415 31.0914 20.2484 31.4994 18.3332 31.5C15.3888 31.503 12.525 30.5383 10.1825 28.7543C13.6349 27.8889 17.6978 26.1611 21.7082 23.8457C25.7219 21.5283 29.252 18.8713 31.7279 16.3123ZM34.8959 8.43751C34.1269 7.10562 32.039 5.84611 26.4832 7.24522C24.4815 5.72592 22.0954 4.79581 19.5935 4.5597C17.0917 4.32358 14.5736 4.79084 12.3231 5.90882C10.0725 7.0268 8.17889 8.75108 6.85556 10.8874C5.53224 13.0237 4.83181 15.4871 4.8332 18C4.83318 18.5639 4.86831 19.1272 4.93838 19.6867C0.954404 23.795 1.00185 26.2312 1.77048 27.5625C2.28986 28.4621 3.4404 29.3608 5.963 29.3608C7.17018 29.3404 8.37149 29.188 9.54551 28.9063C9.75521 28.8592 9.96793 28.8081 10.1825 28.7543C9.45386 28.2007 8.78287 27.575 8.1797 26.8868C5.5563 27.3534 4.05715 27.0231 3.71904 26.4375C3.50797 26.0719 3.62649 25.3849 4.0441 24.5525C4.46211 23.7652 4.96891 23.0282 5.55458 22.3562C6.1257 24.0232 7.0175 25.5623 8.1797 26.8868C8.4582 26.8373 8.74927 26.7786 9.05291 26.7108C12.4204 25.9553 16.5152 24.2457 20.5832 21.8971C24.6512 19.5485 28.1791 16.857 30.5172 14.3185C30.7302 14.0871 30.9284 13.8621 31.1117 13.6437C30.5406 11.9767 29.6488 10.4376 28.4865 9.11307C29.364 8.94107 30.2582 8.8701 31.1518 8.90154C32.0818 8.95593 32.7363 9.1968 32.9473 9.56251C33.2851 10.1475 32.823 11.6085 31.1117 13.6437C31.4078 14.5098 31.6143 15.404 31.7279 16.3123C31.8797 16.1554 32.0284 15.9988 32.1721 15.8428C35.7281 11.982 35.6161 9.68473 34.8959 8.43751Z" fill="white"/>
</svg>
