<svg width="37" height="36" viewBox="0 0 37 36" fill="none" xmlns="http://www.w3.org/2000/svg">
<path d="M32.0613 16.3123C32.3001 18.2125 32.1319 20.1418 31.5679 21.9721C31.004 23.8023 30.0572 25.4917 28.7904 26.9281C27.5237 28.3645 25.9658 29.5149 24.2204 30.3032C22.475 31.0914 20.5818 31.4994 18.6666 31.5C15.7222 31.503 12.8584 30.5383 10.516 28.7543C13.9683 27.8889 18.0312 26.1611 22.0416 23.8457C26.0554 21.5283 29.5855 18.8713 32.0613 16.3123ZM35.2294 8.43751C34.4603 7.10562 32.3724 5.84611 26.8166 7.24522C24.815 5.72592 22.4288 4.79581 19.927 4.5597C17.4251 4.32358 14.9071 4.79084 12.6565 5.90882C10.406 7.0268 8.51234 8.75108 7.18901 10.8874C5.86569 13.0237 5.16526 15.4871 5.16665 18C5.16663 18.5639 5.20176 19.1272 5.27183 19.6867C1.28785 23.795 1.3353 26.2312 2.10393 27.5625C2.62331 28.4621 3.77385 29.3608 6.29645 29.3608C7.50363 29.3404 8.70494 29.188 9.87896 28.9063C10.0887 28.8592 10.3014 28.8081 10.516 28.7543C9.78731 28.2007 9.11632 27.575 8.51315 26.8868C5.88975 27.3534 4.3906 27.0231 4.0525 26.4375C3.84142 26.0719 3.95994 25.3849 4.37755 24.5525C4.79556 23.7652 5.30236 23.0282 5.88803 22.3562C6.45915 24.0232 7.35095 25.5623 8.51315 26.8868C8.79165 26.8373 9.08272 26.7786 9.38636 26.7108C12.7538 25.9553 16.8487 24.2457 20.9166 21.8971C24.9846 19.5485 28.5125 16.857 30.8506 14.3185C31.0637 14.0871 31.2619 13.8621 31.4452 13.6437C30.874 11.9767 29.9822 10.4376 28.82 9.11307C29.6974 8.94107 30.5917 8.8701 31.4852 8.90154C32.4152 8.95593 33.0697 9.1968 33.2808 9.56251C33.6186 10.1475 33.1564 11.6085 31.4452 13.6437C31.7413 14.5098 31.9477 15.404 32.0613 16.3123C32.2131 16.1554 32.3619 15.9988 32.5056 15.8428C36.0615 11.982 35.9495 9.68473 35.2294 8.43751Z" fill="#008B9F"/>
</svg>
