<svg width="32" height="32" viewBox="0 0 32 32" fill="none" xmlns="http://www.w3.org/2000/svg">
<path d="M10.5596 22.8697C10.6098 23.3348 10.5596 23.8186 10.5596 23.8186H20.7953C20.7953 23.8186 20.7953 23.3469 20.7953 22.7299C23.3074 22.3364 28.1422 18.2324 28.1422 18.2324H3.2348C3.2348 18.2324 7.19097 22.3023 10.5596 22.8697Z" fill="white"/>
<path d="M19.3044 8.18201C17.7278 8.18201 13.324 8.18201 12.1415 8.18201C10.9564 8.18201 9.25404 10.3046 9.25404 10.3046H22.123C22.123 10.3046 20.8816 8.18201 19.3044 8.18201Z" fill="white"/>
<path d="M24.8151 11.3091H7.02367L0 17.0901H32L24.8151 11.3091ZM9.50765 15.5269C8.4169 15.5269 7.53225 14.9835 7.53225 14.3144C7.53225 13.6432 8.4169 13.0991 9.50765 13.0991C10.5991 13.0991 11.4831 13.6432 11.4831 14.3144C11.4831 14.9815 10.5991 15.5269 9.50765 15.5269ZM16.0007 15.5269C14.9092 15.5269 14.0253 14.9835 14.0253 14.3144C14.0253 13.6432 14.9092 13.0991 16.0007 13.0991C17.0921 13.0991 17.9747 13.6432 17.9747 14.3144C17.9747 14.9815 17.0921 15.5269 16.0007 15.5269ZM22.5867 15.4145C21.4953 15.4145 20.6113 14.8711 20.6113 14.1999C20.6113 13.5301 21.4953 12.986 22.5867 12.986C23.6775 12.986 24.5621 13.5301 24.5621 14.1999C24.5621 14.8698 23.6775 15.4145 22.5867 15.4145Z" fill="white"/>
</svg>
