<svg width="10" height="10" viewBox="0 0 10 10" fill="none" xmlns="http://www.w3.org/2000/svg">
<path d="M4.65766 1.13165C4.74822 0.852933 5.14253 0.852933 5.23309 1.13165L6.10002 3.79978C6.14052 3.92443 6.25668 4.00882 6.38774 4.00882H9.19318C9.48624 4.00882 9.60808 4.38383 9.37099 4.55608L7.10135 6.20508C6.99532 6.28212 6.95095 6.41866 6.99145 6.54331L7.85838 9.21144C7.94894 9.49016 7.62993 9.72193 7.39284 9.54967L5.1232 7.90067C5.01717 7.82364 4.87359 7.82364 4.76756 7.90067L2.49791 9.54967C2.26082 9.72193 1.94182 9.49016 2.03238 9.21144L2.89931 6.54331C2.93981 6.41866 2.89544 6.28212 2.78941 6.20508L0.519762 4.55608C0.282672 4.38383 0.40452 4.00882 0.69758 4.00882H3.50302C3.63408 4.00882 3.75024 3.92443 3.79073 3.79978L4.65766 1.13165Z" fill="#F8B600"/>
</svg>
