<svg width="11" height="10" viewBox="0 0 11 10" fill="none" xmlns="http://www.w3.org/2000/svg">
<path d="M5.22071 1.13168C5.31127 0.852964 5.70558 0.852964 5.79614 1.13168L6.66307 3.79981C6.70357 3.92446 6.81973 4.00885 6.95079 4.00885H9.75623C10.0493 4.00885 10.1711 4.38386 9.93404 4.55611L7.66439 6.20511C7.55836 6.28215 7.514 6.41869 7.5545 6.54334L8.42143 9.21147C8.51199 9.49019 8.19298 9.72196 7.95589 9.5497L5.68624 7.9007C5.58022 7.82367 5.43664 7.82367 5.33061 7.9007L3.06096 9.5497C2.82387 9.72196 2.50487 9.49019 2.59543 9.21147L3.46236 6.54334C3.50286 6.41869 3.45849 6.28215 3.35246 6.20511L1.08281 4.55611C0.845722 4.38386 0.96757 4.00885 1.26063 4.00885H4.06607C4.19713 4.00885 4.31328 3.92446 4.35378 3.79981L5.22071 1.13168Z" fill="#F8B600" fill-opacity="0.32"/>
</svg>
